<?xml version="1.0" encoding="UTF-8"?>
<svg id="Layer_2" data-name="Layer 2" xmlns="http://www.w3.org/2000/svg" viewBox="0 0 547.23 111.18">
  <defs>
    <style>
      .cls-1 {
        fill: none;
      }

      .cls-2 {
        fill: #4f46e5;
      }
    </style>
  </defs>
  <g id="Layer_1-2" data-name="Layer 1">
    <g>
      <rect class="cls-1" width="547.23" height="111.18"/>
      <g>
        <path class="cls-2" d="M.51,67.68v-25.31C.51,30.18.23,22.55,0,19.13c-.06-.95.69-1.74,1.64-1.74h24.23c.96,0,1.71.81,1.64,1.76-.25,3.43-.6,11.06-.6,23.23v11.89c0,1.46,1.77,2.2,2.8,1.18,5.87-5.81,9.09-13.08,9.09-20.52,0-5.12-1.58-10.25-4.6-15.04-.68-1.08.12-2.5,1.4-2.5h26.43c.83,0,1.52.62,1.63,1.44.2,1.5.33,3.04.33,4.7,0,12.15-6.96,22.74-23.24,33.7-1.35.91-.72,3.01.91,3.01h2.7c8.62,0,14.18,4.49,16.69,13.7l4.56,16.66c.29,1.05-.5,2.08-1.59,2.08h-24.58c-.83,0-1.53-.61-1.63-1.44-.24-2.03-.96-5.77-2.62-12.37-2.18-8.66-3.49-11.07-7.09-11.07h-1.2v.88c0,11.37.35,18.84.6,22.24.07.95-.68,1.76-1.64,1.76H1.64c-.95,0-1.7-.8-1.64-1.74.22-3.42.51-11.05.51-23.24Z"/>
        <path class="cls-2" d="M71.96,67.68v-25.31c0-12.3-.29-19.96-.51-23.33-.06-.92.63-1.7,1.55-1.74,7.9-.39,19.41-.68,24.49-.68,26.51,0,38.51,7.67,38.51,21.04,0,10.11-6.9,17.21-18.26,21.89-1.53.63-1.31,2.85.31,3.14,9.05,1.62,12.85,5.91,14.79,13l4.12,14.9c.29,1.05-.5,2.08-1.58,2.08h-24.54c-.85,0-1.55-.65-1.63-1.5-.15-1.51-.5-3.2-.9-5.07l-1.2-5.15c-2.18-9.32-3.49-11.95-7.31-11.95h-1.53v.33c0,11.22.28,18.31.5,21.59.06.95-.69,1.75-1.64,1.75h-24.02c-.95,0-1.7-.8-1.64-1.74.22-3.42.51-11.05.51-23.24ZM109.16,42.48c0-7.42-2.78-13.57-8.57-17.33-1.1-.71-2.55.07-2.55,1.38v31.67c0,1.3,1.45,2.1,2.54,1.39,5.37-3.49,8.59-9.09,8.59-17.1Z"/>
        <path class="cls-2" d="M143.62,74.59v-32.22c0-12.19-.28-19.82-.51-23.24-.06-.95.69-1.74,1.64-1.74h24.14c.95,0,1.7.8,1.64,1.74-.22,3.42-.51,11.05-.51,23.24v30.58c0,3.18,1.2,4.38,2.84,4.38,2.71,0,5.13-3.21,6.96-6.18.16-.26.24-.56.24-.86v-27.92c0-12.19-.28-19.82-.51-23.24-.06-.95.69-1.74,1.64-1.74h24.13c.95,0,1.7.8,1.64,1.74-.22,3.42-.51,11.05-.51,23.24v32.33c0,7.69.45,12.47,1.28,15.94.25,1.04-.53,2.04-1.59,2.04h-22.04c-.77,0-1.44-.53-1.6-1.28-.37-1.72-.66-3.56-.89-5.41-.18-1.5-2.13-1.98-2.98-.73-3.53,5.22-8.94,9.72-17.23,9.72-10.69,0-17.78-7.23-17.78-20.38Z"/>
        <path class="cls-2" d="M214.09,53.99c0-22.69,13.09-38.8,31.96-38.8,15.41,0,28.06,10.87,32.82,28.15.26.94-.33,1.91-1.29,2.08l-24.03,4.21c-.93.16-1.8-.49-1.91-1.43-1.61-12.85-5.96-23.69-9.62-23.69-2.29,0-3.49,4.27-3.49,11.73,0,21.59,10.04,41.21,20.51,41.21,5.2,0,8.21-4.7,8.58-14.9.04-1.09,1.1-1.85,2.14-1.52l7.74,2.49c.8.26,1.28,1.07,1.11,1.89-3.82,18.12-15.61,29.46-31.13,29.46-19.09,0-33.38-17.2-33.38-40.88Z"/>
        <path class="cls-2" d="M285.43,67.68v-25.31c0-12.3-.29-19.96-.51-23.33-.06-.92.63-1.7,1.55-1.74,7.9-.39,19.41-.68,24.49-.68,26.51,0,38.51,7.67,38.51,21.04,0,10.11-6.9,17.21-18.26,21.89-1.53.63-1.31,2.85.31,3.14,9.05,1.62,12.85,5.91,14.79,13l4.12,14.9c.29,1.05-.5,2.08-1.58,2.08h-24.54c-.85,0-1.55-.65-1.63-1.5-.15-1.51-.5-3.2-.9-5.07l-1.2-5.15c-2.18-9.32-3.49-11.95-7.31-11.95h-1.53v.33c0,11.22.28,18.31.5,21.59.06.95-.69,1.75-1.64,1.75h-24.02c-.95,0-1.7-.8-1.64-1.74.22-3.42.51-11.05.51-23.24ZM322.63,42.48c0-7.42-2.78-13.57-8.57-17.33-1.1-.71-2.55.07-2.55,1.38v31.67c0,1.3,1.45,2.1,2.54,1.39,5.37-3.49,8.59-9.09,8.59-17.1Z"/>
        <path class="cls-2" d="M350.88,91.03c0-11.18,6.22-30.25,16.47-54.9l7.54-18.06c.26-.61.85-1.01,1.52-1.01h18.14c.7,0,1.32.44,1.55,1.1l25.36,72.33c.37,1.07-.42,2.19-1.55,2.19h-26.07c-.81,0-1.5-.59-1.62-1.39-.39-2.64-1.72-7.52-4.21-15.74-.21-.69-.85-1.17-1.57-1.17h-10.52c-1.13,0-1.92,1.11-1.56,2.18,1.61,4.85,4.09,9.3,7.4,13.43.87,1.09.12,2.69-1.27,2.69h-27.95c-.91,0-1.64-.74-1.64-1.64h0ZM373.59,64.29h8.65c1.11,0,1.9-1.08,1.57-2.14l-7.18-22.85-.33.77c-3.38,7.78-4.36,14.57-4.36,20.82,0,.58,0,1.2.02,1.82.02.88.76,1.58,1.64,1.58Z"/>
        <path class="cls-2" d="M425.6,67.68v-25.31c0-12.19-.28-19.82-.51-23.24-.06-.95.69-1.74,1.64-1.74h48.25c.73,0,1.37.48,1.58,1.18l2.56,8.8c.33,1.13-.61,2.23-1.78,2.08-7.85-.96-15.58-1.6-23.51-1.92-.93-.04-1.72.71-1.72,1.65v25.07c0,.93.78,1.68,1.71,1.64l18.32-.73c1.07-.04,1.9.94,1.67,1.99l-1.86,8.65c-.18.82-.95,1.37-1.78,1.28-5.55-.6-11.02-.98-16.35-1.19-.93-.04-1.71.71-1.71,1.65v.15c0,12.19.28,19.82.51,23.24.06.95-.69,1.74-1.64,1.74h-24.24c-.95,0-1.7-.8-1.64-1.74.22-3.42.51-11.05.51-23.24Z"/>
        <path class="cls-2" d="M486.28,17.38h56.77c.73,0,1.37.48,1.58,1.18l2.54,8.73c.33,1.15-.64,2.26-1.83,2.08-5.43-.8-10.7-1.39-15.66-1.78-.95-.08-1.76.69-1.76,1.64v38.44c0,12.19.28,19.82.51,23.24.06.95-.69,1.74-1.64,1.74h-24.24c-.95,0-1.7-.8-1.64-1.74.22-3.42.51-11.05.51-23.24V29.24c0-.96-.81-1.72-1.76-1.64-4.96.39-10.23.99-15.66,1.78-1.19.17-2.16-.93-1.83-2.08l2.54-8.73c.2-.7.85-1.18,1.58-1.18Z"/>
      </g>
    </g>
  </g>
</svg>